<svg xmlns="http://www.w3.org/2000/svg" xmlns:xlink="http://www.w3.org/1999/xlink" width="13.846" height="13.846" viewBox="0 0 13.846 13.846">
  <defs>
    <clipPath id="clip-path">
      <path id="Shape" d="M6.922,13.846a6.923,6.923,0,1,1,6.924-6.924A6.93,6.93,0,0,1,6.922,13.846Zm-3.87-7.9h0l-.976.976,3.46,3.461,6.232-6.232-.977-.983L5.538,8.425,3.052,5.946Z" transform="translate(0.001 0.001)" fill="#3598db"/>
    </clipPath>
  </defs>
  <g id="correct_email" transform="translate(-0.001 -0.001)">
    <path id="Shape-2" data-name="Shape" d="M6.922,13.846a6.923,6.923,0,1,1,6.924-6.924A6.93,6.93,0,0,1,6.922,13.846Zm-3.87-7.9h0l-.976.976,3.46,3.461,6.232-6.232-.977-.983L5.538,8.425,3.052,5.946Z" transform="translate(0.001 0.001)" fill="none"/>
    <g id="Ico_fettle_proper-2_Clipped" data-name="Ico_fettle_proper-2 Clipped" clip-path="url(#clip-path)">
      <g id="Ico_fettle_proper-2" transform="translate(-4 -4)">
        <g id="Color_A" transform="translate(0.923 0.923)">
          <rect id="Color_F-P" width="20" height="20" fill="#3598db"/>
        </g>
      </g>
    </g>
  </g>
</svg>
